# xmcd
#
# Track frame offsets: 
#        187
#        14387
#        26367
#        39025
#        53575
#        68212
#        81477
#        96195
#        110580
#        124685
#
# Disc length: 1795 seconds
#
# Revision: 1
# Processed by: cddbd v1.5.2PL0 Copyright (c) Steve Scherf et al.
# Submitted via: ExactAudioCopy v0.95b4
#
DISCID=7607010a
DTITLE=Joan Sebastian - Mis Nuevas Baladas
DYEAR=1900
DGENRE=Country
TTITLE0=El Perdedor
TTITLE1=Esa
TTITLE2=Nube Gris
TTITLE3=Bule De Agua Fresca
TTITLE4=El Ultimo Jinete
TTITLE5=Ella Esta Casada
TTITLE6=Buena Amiga
TTITLE7=Pirata
TTITLE8=Todavia Creo
TTITLE9=A Medio Metro
EXTD=
EXTT0=
EXTT1=
EXTT2=
EXTT3=
EXTT4=
EXTT5=
EXTT6=
EXTT7=
EXTT8=
EXTT9=
PLAYORDER=
